<svg xmlns="http://www.w3.org/2000/svg" xmlns:xlink="http://www.w3.org/1999/xlink" width="28" height="28" viewBox="0 0 28 28"><defs><style>.a,.c{fill:#fff;}.a{stroke:#707070;}.b{clip-path:url(#a);}</style><clipPath id="a"><rect class="a" width="28" height="28" transform="translate(102 61)"/></clipPath></defs><g class="b" transform="translate(-102 -61)"><path class="c" d="M28.452,14.452a14,14,0,1,1-14-14A14,14,0,0,1,28.452,14.452ZM12.832,21.864,23.219,11.477a.9.9,0,0,0,0-1.277L21.942,8.923a.9.9,0,0,0-1.277,0l-8.471,8.471L8.239,13.439a.9.9,0,0,0-1.277,0L5.684,14.716a.9.9,0,0,0,0,1.277l5.871,5.871a.9.9,0,0,0,1.277,0Z" transform="translate(101.548 60.548)"/></g></svg>