<svg xmlns="http://www.w3.org/2000/svg" xmlns:xlink="http://www.w3.org/1999/xlink" width="16" height="16" viewBox="0 0 16 16"><defs><style>.a,.c{fill:#fff;}.a{stroke:#707070;}.b{clip-path:url(#a);}</style><clipPath id="a"><rect class="a" width="16" height="16" transform="translate(318.124 58)"/></clipPath></defs><g class="b" transform="translate(-318.124 -58)"><path class="c" d="M9.666,2.1l2.166,2.166a.235.235,0,0,1,0,.331L6.588,9.835l-2.228.247a.467.467,0,0,1-.516-.516l.247-2.228L9.334,2.1a.235.235,0,0,1,.331,0Zm3.889-.55L12.383.374a.939.939,0,0,0-1.325,0l-.85.85a.235.235,0,0,0,0,.331L12.374,3.72a.235.235,0,0,0,.331,0l.85-.85a.939.939,0,0,0,0-1.325ZM9.219,8.409v2.444H1.536V3.171H7.053a.3.3,0,0,0,.2-.084l.96-.96a.288.288,0,0,0-.2-.492H1.152A1.153,1.153,0,0,0,0,2.786v8.451A1.153,1.153,0,0,0,1.152,12.39H9.6a1.153,1.153,0,0,0,1.152-1.152V7.449a.289.289,0,0,0-.492-.2l-.96.96A.3.3,0,0,0,9.219,8.409Z" transform="translate(319.124 59.9)"/></g></svg>