<svg xmlns="http://www.w3.org/2000/svg" xmlns:xlink="http://www.w3.org/1999/xlink" width="159" height="159" viewBox="0 0 159 159"><defs><style>.a,.c{fill:#e0e0e0;}.a{stroke:#707070;}.b{clip-path:url(#a);}</style><clipPath id="a"><rect class="a" width="159" height="159" transform="translate(62 334)"/></clipPath></defs><g class="b" transform="translate(-62 -334)"><path class="c" d="M79.5,0A34.78,34.78,0,0,0,44.719,34.781c0,15.53,22.732,43.835,31.441,54.11a4.354,4.354,0,0,0,6.68,0c8.709-10.274,31.441-38.58,31.441-54.11A34.78,34.78,0,0,0,79.5,0Zm0,46.375A11.594,11.594,0,1,1,91.094,34.781,11.592,11.592,0,0,1,79.5,46.375ZM5.554,59.611A8.835,8.835,0,0,0,0,67.812v69.1a4.417,4.417,0,0,0,6.056,4.1l38.11-17.346V59.327A83.6,83.6,0,0,1,38.3,46.513ZM79.5,99.284A13.189,13.189,0,0,1,69.422,94.6c-5.427-6.4-11.2-13.7-16.422-21.178v50.24l53,17.667v-67.9C100.777,80.905,95.008,88.2,89.578,94.6A13.2,13.2,0,0,1,79.5,99.284Zm73.444-54.8-38.11,17.346v79.5l38.613-15.445a8.832,8.832,0,0,0,5.554-8.2v-69.1a4.417,4.417,0,0,0-6.056-4.1Z" transform="translate(62 342.833)"/></g></svg>