<svg xmlns="http://www.w3.org/2000/svg" xmlns:xlink="http://www.w3.org/1999/xlink" width="18.127" height="17.303" viewBox="0 0 18.127 17.303"><defs><style>.a,.c{fill:gray;}.a{stroke:#707070;}.b{clip-path:url(#a);}</style><clipPath id="a"><rect class="a" width="18.127" height="17.303" transform="translate(248 241)"/></clipPath></defs><g class="b" transform="translate(-248 -241)"><path class="c" d="M16,4.988H12.47V.623A.623.623,0,0,0,11.846,0H8.105a.623.623,0,0,0-.623.623v1.87H5.819V.416A.416.416,0,0,0,5.4,0H4.988a.416.416,0,0,0-.416.416V2.494H2.91V.416A.416.416,0,0,0,2.494,0H2.078a.416.416,0,0,0-.416.416V2.494H.623A.623.623,0,0,0,0,3.117V12.47a.831.831,0,0,0,.831.831H15.8a.831.831,0,0,0,.831-.831V5.611A.623.623,0,0,0,16,4.988ZM3.325,10.5a.312.312,0,0,1-.312.312H1.974a.312.312,0,0,1-.312-.312V9.456a.312.312,0,0,1,.312-.312H3.014a.312.312,0,0,1,.312.312ZM3.325,8a.312.312,0,0,1-.312.312H1.974A.312.312,0,0,1,1.663,8V6.962a.312.312,0,0,1,.312-.312H3.014a.312.312,0,0,1,.312.312Zm0-2.494a.312.312,0,0,1-.312.312H1.974a.312.312,0,0,1-.312-.312V4.468a.312.312,0,0,1,.312-.312H3.014a.312.312,0,0,1,.312.312ZM6.651,10.5a.312.312,0,0,1-.312.312H5.3a.312.312,0,0,1-.312-.312V9.456A.312.312,0,0,1,5.3,9.145H6.339a.312.312,0,0,1,.312.312ZM6.651,8a.312.312,0,0,1-.312.312H5.3A.312.312,0,0,1,4.988,8V6.962A.312.312,0,0,1,5.3,6.651H6.339a.312.312,0,0,1,.312.312Zm0-2.494a.312.312,0,0,1-.312.312H5.3a.312.312,0,0,1-.312-.312V4.468A.312.312,0,0,1,5.3,4.157H6.339a.312.312,0,0,1,.312.312ZM10.807,8a.312.312,0,0,1-.312.312H9.456A.312.312,0,0,1,9.145,8V6.962a.312.312,0,0,1,.312-.312H10.5a.312.312,0,0,1,.312.312Zm0-2.494a.312.312,0,0,1-.312.312H9.456a.312.312,0,0,1-.312-.312V4.468a.312.312,0,0,1,.312-.312H10.5a.312.312,0,0,1,.312.312Zm0-2.494a.312.312,0,0,1-.312.312H9.456a.312.312,0,0,1-.312-.312V1.974a.312.312,0,0,1,.312-.312H10.5a.312.312,0,0,1,.312.312ZM14.964,10.5a.312.312,0,0,1-.312.312H13.613A.312.312,0,0,1,13.3,10.5V9.456a.312.312,0,0,1,.312-.312h1.039a.312.312,0,0,1,.312.312Zm0-2.494a.312.312,0,0,1-.312.312H13.613A.312.312,0,0,1,13.3,8V6.962a.312.312,0,0,1,.312-.312h1.039a.312.312,0,0,1,.312.312Z" transform="translate(249 243)"/></g></svg>